<svg width="83" height="83" viewBox="0 0 83 83" fill="none" xmlns="http://www.w3.org/2000/svg">
<g clip-path="url(#clip0_6_764)">
<path d="M52.2144 31.8595C43.1705 27.5952 40.6982 24.3974 42.7646 19.638C44.7289 15.0976 46.2316 11.5439 47.3588 8.7716C47.7456 7.8198 47.8924 6.78748 47.7863 5.76557C47.6801 4.74367 47.3243 3.76355 46.7502 2.91154C46.1803 2.06347 45.4095 1.36961 44.5063 0.891855C43.6032 0.414096 42.5958 0.167291 41.5741 0.173452C35.8833 0.180253 30.2537 1.34881 25.0304 3.60755C19.807 5.86628 15.0998 9.16763 11.197 13.3094C7.30676 17.4251 4.31108 22.3019 2.39871 27.6326C0.486346 32.9633 -0.301266 38.6323 0.0855015 44.2824C0.754848 54.3671 5.08494 63.86 12.2617 70.9763C19.4385 78.0927 28.9676 82.3424 39.0576 82.9265C39.7498 82.967 40.4379 82.991 41.122 82.9986C41.229 82.9999 41.3342 82.9999 41.4405 82.9999C47.4321 83.1299 53.2783 81.1474 57.9549 77.3996C62.6314 73.6518 65.84 68.3779 67.0184 62.5019C69.4575 51.8736 65.8259 38.278 52.2144 31.8595Z" fill="#494A59"/>
<path d="M81.7939 8.71093C81.2542 7.91125 80.5566 7.23044 79.744 6.7104C78.9314 6.19035 78.021 5.84207 77.0688 5.68696C76.1166 5.53186 75.1427 5.57322 74.2071 5.8085C73.2714 6.04379 72.3938 6.46801 71.6283 7.05508L38.9994 32.0588C38.8268 32.1911 38.6902 32.3646 38.6022 32.5634C38.5142 32.7622 38.4776 32.98 38.4957 33.1966C38.5139 33.4133 38.5862 33.6219 38.7061 33.8033C38.826 33.9847 38.9895 34.1331 39.1817 34.2347C39.9843 34.6932 40.6695 35.3317 41.1833 36.1C41.6971 36.8683 42.0256 37.7454 42.1428 38.6623C42.1661 38.8778 42.2431 39.0841 42.3667 39.2622C42.4903 39.4403 42.6566 39.5846 42.8503 39.6818C43.0441 39.7791 43.2592 39.8262 43.4758 39.8189C43.6925 39.8116 43.9039 39.7501 44.0907 39.64L79.5204 18.7478C80.3518 18.2634 81.0743 17.6125 81.6426 16.8359C82.2108 16.0593 82.6126 15.1738 82.8228 14.2347C83.0354 13.2924 83.0538 12.3166 82.8769 11.3669C82.7001 10.4172 82.3316 9.51353 81.7939 8.71093Z" fill="#FCD354"/>
<path d="M74.2748 21.8407L79.5203 18.7476C80.3518 18.2632 81.0742 17.6123 81.6425 16.8357C82.2107 16.0591 82.6125 15.1736 82.8227 14.2345C83.0594 13.1993 83.0597 12.1241 82.8236 11.0888C82.5875 10.0535 82.121 9.08476 81.4589 8.2546C80.7968 7.42443 79.956 6.75422 78.9991 6.2938C78.0422 5.83339 76.9939 5.59461 75.932 5.59523C74.3753 5.5917 72.8615 6.1051 71.6282 7.05487L66.8003 10.755L74.2748 21.8407Z" fill="#F25757"/>
<path d="M33.7188 75.3921C37.3 75.3921 40.2031 72.4889 40.2031 68.9077C40.2031 65.3265 37.3 62.4233 33.7188 62.4233C30.1375 62.4233 27.2344 65.3265 27.2344 68.9077C27.2344 72.4889 30.1375 75.3921 33.7188 75.3921Z" fill="#61E5F2"/>
<path d="M17.466 48.1858C16.1891 48.066 14.9054 48.3275 13.7771 48.9373C12.6488 49.547 11.7266 50.4775 11.1271 51.6113C10.5277 52.745 10.2778 54.0311 10.4091 55.3068C10.5404 56.5825 11.047 57.7907 11.8649 58.7786C12.4062 59.4363 13.0728 59.9799 13.8259 60.378C14.579 60.7761 15.4036 61.0206 16.252 61.0975C16.4595 61.1179 16.6659 61.1281 16.8713 61.128C18.5386 61.1261 20.141 60.4822 21.346 59.3299C22.551 58.1777 23.2659 56.6057 23.3425 54.9402C23.419 53.2748 22.8512 51.6438 21.7569 50.3859C20.6626 49.1281 19.126 48.34 17.466 48.1852V48.1858Z" fill="#3DE29F"/>
<path d="M14.2656 39.0796C17.8468 39.0796 20.75 36.1764 20.75 32.5952C20.75 29.014 17.8468 26.1108 14.2656 26.1108C10.6844 26.1108 7.78125 29.014 7.78125 32.5952C7.78125 36.1764 10.6844 39.0796 14.2656 39.0796Z" fill="#FCD354"/>
<path d="M27.2344 22.2202C30.8156 22.2202 33.7188 19.3171 33.7188 15.7358C33.7188 12.1546 30.8156 9.25146 27.2344 9.25146C23.6532 9.25146 20.75 12.1546 20.75 15.7358C20.75 19.3171 23.6532 22.2202 27.2344 22.2202Z" fill="#F25757"/>
<path d="M53.1719 67.6108C56.7531 67.6108 59.6562 64.7077 59.6562 61.1265C59.6562 57.5452 56.7531 54.6421 53.1719 54.6421C49.5907 54.6421 46.6875 57.5452 46.6875 61.1265C46.6875 64.7077 49.5907 67.6108 53.1719 67.6108Z" fill="#48ACFF"/>
<path d="M42.4641 50.6687C40.7455 49.8012 39.7373 48.8589 39.6986 48.0813C39.6562 47.2239 40.7391 46.3374 41.1571 46.0711C42.9578 44.8542 44.2022 42.9727 44.6174 40.8394C45.0325 38.7061 44.5845 36.4952 43.3715 34.6918C42.3143 33.0188 40.666 31.8052 38.7546 31.2924C36.8431 30.7796 34.8087 31.0053 33.0561 31.9246C28.9785 33.7736 25.4304 38.7053 26.8829 44.2031C28.7764 51.3663 36.068 53.1761 40.6356 53.1748C41.1226 53.1748 41.5791 53.1545 41.9945 53.1178C42.2752 53.0928 42.5401 52.977 42.7492 52.788C42.9582 52.5989 43.1 52.3469 43.153 52.0701C43.206 51.7933 43.1675 51.5068 43.0431 51.2539C42.9188 51.001 42.7154 50.7955 42.4638 50.6684L42.4641 50.6687Z" fill="#F25757"/>
<path d="M30.343 44.5866C30.0569 44.5865 29.7789 44.4918 29.5522 44.3172C29.3256 44.1427 29.163 43.8981 29.0898 43.6215C28.6841 41.6991 28.95 39.6956 29.8432 37.9456C30.7363 36.1955 32.2026 34.8047 33.9973 34.0052C34.3107 33.8631 34.6677 33.8513 34.9898 33.9725C35.3119 34.0936 35.5726 34.3377 35.7147 34.6511C35.8568 34.9645 35.8686 35.3215 35.7474 35.6436C35.6263 35.9656 35.3822 36.2264 35.0688 36.3685C33.8248 36.9055 32.8021 37.852 32.1706 39.0508C31.5391 40.2495 31.3369 41.6283 31.5974 42.9579C31.6483 43.1499 31.6543 43.3511 31.6151 43.5458C31.5759 43.7406 31.4924 43.9237 31.3712 44.0811C31.25 44.2385 31.0942 44.3659 30.916 44.4536C30.7377 44.5412 30.5416 44.5868 30.343 44.5866Z" fill="#D63434"/>
</g>
<defs>
<clipPath id="clip0_6_764">
<rect width="83" height="83" fill="white"/>
</clipPath>
</defs>
</svg>
