<svg width="24" height="25" viewBox="0 0 24 25" fill="none" xmlns="http://www.w3.org/2000/svg">
<path d="M19.2002 4.13599H4.8002C3.91582 4.13599 3.2002 4.85161 3.2002 5.73599V20.136C3.2002 21.0204 3.91582 21.736 4.8002 21.736H12.8002V14.536H10.4002V12.136H12.8002V10.8469C12.8002 8.40786 13.9893 7.33599 16.0174 7.33599C16.9877 7.33599 17.5018 7.40786 17.7455 7.44067V9.73599H16.3611C15.5018 9.73599 15.2002 10.1907 15.2002 11.111V12.136H17.7236L17.3814 14.536H15.2002V21.736H19.2002C20.0846 21.736 20.8002 21.0204 20.8002 20.136V5.73599C20.8002 4.85161 20.083 4.13599 19.2002 4.13599Z" fill="#7479A6"/>
</svg>
