<svg width="17" height="18" viewBox="0 0 17 18" fill="none" xmlns="http://www.w3.org/2000/svg">
<g clip-path="url(#clip0_14_238)">
<path d="M8.5 15.811C12.0208 15.811 14.875 12.9569 14.875 9.43604C14.875 5.91522 12.0208 3.06104 8.5 3.06104C4.97918 3.06104 2.125 5.91522 2.125 9.43604C2.125 12.9569 4.97918 15.811 8.5 15.811Z" stroke="#51557D" stroke-linecap="round" stroke-linejoin="round"/>
<path d="M10.6252 11.03C10.2906 11.4759 9.82425 11.8052 9.29213 11.9713C8.76 12.1375 8.1891 12.132 7.66027 11.9557C7.13144 11.7793 6.67149 11.4411 6.34556 10.9888C6.01963 10.5366 5.84424 9.99326 5.84424 9.43581C5.84423 8.87835 6.01961 8.33503 6.34554 7.88278C6.67146 7.43053 7.13141 7.09228 7.66024 6.91594C8.18907 6.7396 8.75997 6.73411 9.29209 6.90024C9.82422 7.06637 10.2906 7.3957 10.6252 7.8416" stroke="#51557D" stroke-linecap="round" stroke-linejoin="round"/>
</g>
<defs>
<clipPath id="clip0_14_238">
<rect width="17" height="17" fill="white" transform="translate(0 0.936035)"/>
</clipPath>
</defs>
</svg>
