<svg width="24" height="13" viewBox="0 0 24 13" fill="none" xmlns="http://www.w3.org/2000/svg">
<path d="M3.88477 1.27249C3.35742 3.08889 2.83008 4.90529 2.30273 6.7217C1.77539 8.5381 1.24805 10.3545 0.720703 12.1709C2.47852 12.6397 4.35352 12.8154 6.28711 12.8154C8.16211 12.8154 10.0957 12.5811 12.0293 12.2881C13.8457 12.8154 16.248 13.0498 18.416 12.9912C20.584 12.9326 22.459 12.6397 23.2793 12.2295C22.752 10.4131 22.2246 8.59669 21.6973 6.78029C21.1699 4.96389 20.6426 3.14749 20.1152 1.33108C17.5957 2.0928 15.9551 2.03421 14.7832 1.74124C13.6113 1.44827 12.9082 0.979523 12.1465 0.920929C12.0879 0.920929 12.0293 0.920929 11.9121 0.920929C11.0918 0.979523 10.4473 1.44827 9.27539 1.74124C8.10352 2.03421 6.46289 2.0928 3.94336 1.33108L3.88477 1.27249Z" fill="#795548"/>
<path d="M6.63867 11.9366C4.88086 11.9366 3.18164 11.7608 1.59961 11.292C2.06836 9.53421 2.47852 7.83499 2.94727 6.07718C3.41602 4.31937 3.82617 2.56155 4.29492 0.862335C5.4082 1.33109 6.69727 1.50687 7.98633 1.50687C9.27539 1.50687 10.623 1.2139 11.9121 0.862335C11.9121 2.62015 11.9121 4.37796 11.9121 6.07718C11.9121 7.83499 11.9121 9.5928 11.9121 11.292C10.1543 11.7022 8.33789 11.9366 6.58008 11.9366H6.63867Z" fill="#FFD598"/>
<path fill-rule="evenodd" clip-rule="evenodd" d="M2.94727 10.5889C3.29883 9.18265 3.5918 7.7764 3.94336 6.31155C4.29492 4.9053 4.58789 3.49905 4.93945 2.03421C5.87695 2.26859 6.93164 2.38577 7.92773 2.38577C8.98242 2.38577 10.0371 2.20999 11.0918 1.97562C11.0332 3.38187 11.0332 4.78812 10.9746 6.25296C10.916 7.65921 10.916 9.06546 10.8574 10.5303C9.50977 10.8233 8.16211 10.9405 6.81445 10.9991C5.4668 10.9991 4.17773 10.8819 3.00586 10.5889H2.94727Z" fill="#EDBD78"/>
<path d="M17.3027 11.9366C19.0605 11.9366 20.7598 11.7608 22.3418 11.292C21.873 9.53421 21.4629 7.7764 20.9941 6.07718C20.5254 4.31937 20.1152 2.56155 19.6465 0.862335C18.5332 1.33109 17.2441 1.50687 15.9551 1.50687C14.666 1.50687 13.3184 1.2139 12.0293 0.862335C12.0293 2.62015 12.0293 4.37796 12.0293 6.07718C12.0293 7.83499 12.0293 9.5928 12.0293 11.292C13.7871 11.7022 15.6035 11.9366 17.3613 11.9366H17.3027Z" fill="#FFCC80"/>
<path fill-rule="evenodd" clip-rule="evenodd" d="M13.084 10.5303C13.0254 9.12405 13.0254 7.7178 12.9668 6.25296C12.9082 4.84671 12.9082 3.44046 12.8496 1.97562C13.9043 2.20999 14.959 2.38577 16.0137 2.38577C17.0684 2.38577 18.0645 2.26859 19.002 2.03421C19.3535 3.44046 19.6465 4.84671 19.998 6.31155C20.3496 7.7178 20.6426 9.12405 20.9941 10.5889C19.8223 10.8819 18.5332 10.9991 17.1855 10.9991C15.8379 10.9991 14.4316 10.8233 13.1426 10.5303H13.084Z" fill="#EDBD78"/>
</svg>
