<svg width="22" height="23" viewBox="0 0 22 23" fill="none" xmlns="http://www.w3.org/2000/svg">
<path d="M7.3321 3.13599C4.50216 3.13599 2.2002 5.44009 2.2002 8.27075V15.6041C2.2002 18.434 4.50429 20.736 7.33496 20.736H14.6683C17.4982 20.736 19.8002 18.4319 19.8002 15.6012V8.26789C19.8002 5.43795 17.4961 3.13599 14.6654 3.13599H7.3321ZM16.1335 6.06932C16.5383 6.06932 16.8669 6.39785 16.8669 6.80265C16.8669 7.20745 16.5383 7.53599 16.1335 7.53599C15.7287 7.53599 15.4002 7.20745 15.4002 6.80265C15.4002 6.39785 15.7287 6.06932 16.1335 6.06932ZM11.0002 7.53599C13.4268 7.53599 15.4002 9.50939 15.4002 11.936C15.4002 14.3626 13.4268 16.336 11.0002 16.336C8.5736 16.336 6.60019 14.3626 6.60019 11.936C6.60019 9.50939 8.5736 7.53599 11.0002 7.53599ZM11.0002 9.00265C10.2222 9.00265 9.47612 9.3117 8.92601 9.86181C8.37591 10.4119 8.06686 11.158 8.06686 11.936C8.06686 12.714 8.37591 13.4601 8.92601 14.0102C9.47612 14.5603 10.2222 14.8693 11.0002 14.8693C11.7782 14.8693 12.5243 14.5603 13.0744 14.0102C13.6245 13.4601 13.9335 12.714 13.9335 11.936C13.9335 11.158 13.6245 10.4119 13.0744 9.86181C12.5243 9.3117 11.7782 9.00265 11.0002 9.00265Z" fill="#7479A6"/>
</svg>
