<svg width="24" height="25" viewBox="0 0 24 25" fill="none" xmlns="http://www.w3.org/2000/svg">
<path d="M19.2002 4.13599H4.8002C3.9162 4.13599 3.2002 4.85199 3.2002 5.73599V20.136C3.2002 21.02 3.9162 21.736 4.8002 21.736H19.2002C20.0842 21.736 20.8002 21.02 20.8002 20.136V5.73599C20.8002 4.85199 20.0842 4.13599 19.2002 4.13599ZM8.7634 18.536H6.4034V10.9424H8.7634V18.536ZM7.5594 9.85679C6.7986 9.85679 6.1834 9.23999 6.1834 8.48079C6.1834 7.72159 6.7994 7.10559 7.5594 7.10559C8.3178 7.10559 8.9346 7.72239 8.9346 8.48079C8.9346 9.23999 8.3178 9.85679 7.5594 9.85679ZM17.6034 18.536H15.245V14.8432C15.245 13.9624 15.229 12.8296 14.0186 12.8296C12.7906 12.8296 12.6018 13.7888 12.6018 14.7792V18.536H10.2434V10.9424H12.5074V11.98H12.5394C12.8546 11.3832 13.6242 10.7536 14.7722 10.7536C17.1618 10.7536 17.6034 12.3264 17.6034 14.3712V18.536Z" fill="#7479A6"/>
</svg>
