<svg width="778" height="783" viewBox="0 0 778 783" fill="none" xmlns="http://www.w3.org/2000/svg">
<mask id="mask0_6_296" style="mask-type:alpha" maskUnits="userSpaceOnUse" x="104" y="115" width="536" height="544">
<path fill-rule="evenodd" clip-rule="evenodd" d="M123.461 279.861C158.587 222.268 238.815 226.057 301.453 201.013C372.886 172.454 443.199 87.3505 510.138 125.265C577.469 163.401 532.092 270.029 554.217 344.18C575.289 414.802 661.329 472.684 634.251 541.229C607.035 610.127 512.182 612.71 440.602 631.789C374.645 649.369 305.455 675.094 244.077 645.227C181.89 614.967 152.374 546.658 130.694 480.986C108.832 414.762 87.1468 339.4 123.461 279.861Z" fill="#FB7356"/>
</mask>
<g mask="url(#mask0_6_296)">
<path fill-rule="evenodd" clip-rule="evenodd" d="M489.622 105.582C486.333 108.865 487.815 121.836 491.645 123.306C497.824 125.674 501.661 118.778 498.614 110.779C495.985 103.87 493.039 102.166 489.622 105.582ZM450.24 143.269C448.106 149.982 451.927 154.485 458.66 153.188C464.653 152.037 466.838 143.166 461.896 140.037C455.98 136.291 452.116 137.363 450.24 143.269ZM352.575 143.269C348.272 146.412 348.043 147.611 351.061 151.245C353.014 153.594 357.498 155.519 361.024 155.519C369.377 155.519 372.355 147.916 365.859 143.171C359.723 138.689 358.834 138.697 352.575 143.269ZM537.413 145.197C535.029 149.642 535.247 151.67 538.443 154.863C543.422 159.839 550.884 157.412 550.884 150.817C550.884 145.872 546.165 139.569 542.461 139.569C541.343 139.569 539.071 142.1 537.413 145.197ZM401.148 149.979C399.586 155.95 403.666 160.836 410.22 160.836C416.633 160.836 418.61 156.63 415.196 150.258C411.551 143.453 402.902 143.28 401.148 149.979ZM493.071 155.905C490.681 162.122 494.053 167.867 500.091 167.867C507.683 167.867 510.171 160.022 504.005 155.519C497.651 150.878 494.966 150.971 493.071 155.905ZM450.24 177.424C451.169 183.91 459.291 186.938 463.769 182.464C467.532 178.705 461.481 171.469 454.573 171.469C450.727 171.469 449.61 173.006 450.24 177.424ZM388.827 184.253C386.544 188.517 386.818 190.62 390.081 193.882C395.395 199.19 398.934 199.177 400.983 193.845C401.92 191.407 400.318 187.353 397.175 184.216L391.752 178.796L388.827 184.253ZM541.498 184.878C539.385 188.294 544.936 195.394 549.721 195.394C554.46 195.394 556.573 191.468 554.598 186.329C552.776 181.582 544.13 180.625 541.498 184.878ZM303.43 188.714C298.677 194.435 302.142 200.711 310.053 200.711C318.784 200.711 321.964 193.23 315.298 188.363C309.047 183.799 307.475 183.844 303.43 188.714ZM350.414 186.534C347.106 189.836 348.615 200.134 352.631 201.673C358.467 203.909 364.606 200.817 364.606 195.642C364.606 187.749 355.225 181.728 350.414 186.534ZM491.634 198.909C489.697 203.999 494.351 214.194 498.614 214.194C503.862 214.194 506.174 206.873 502.872 200.711C499.766 194.913 493.537 193.914 491.634 198.909ZM224.48 218.118C222.843 222.379 231.17 230.501 234.848 228.23C235.963 227.544 236.873 224.062 236.873 220.492C236.873 215.741 235.425 214.003 231.468 214.003C228.493 214.003 225.35 215.856 224.48 218.118ZM418.238 220.157C413.903 225.373 424.348 235.137 429.14 230.349C431.437 228.055 431.551 225.894 429.553 222.728C425.726 216.669 421.865 215.792 418.238 220.157ZM520.542 218.618C517.952 221.202 518.727 229.501 521.728 231.354C525.587 233.738 532.24 227.685 530.561 223.318C528.964 219.16 522.862 216.297 520.542 218.618ZM335.847 225.186C331.659 229.371 331.84 231.399 336.853 236.41C343.237 242.785 351.862 241.857 350.821 234.911C349.65 227.103 340.124 220.915 335.847 225.186ZM297.192 231.726C293.176 235.735 295.59 245.6 301.008 247.317C308.467 249.683 312.448 245.191 310.341 236.793C308.707 230.296 301.428 227.491 297.192 231.726ZM251.953 237.043C250.977 238.016 250.178 241.525 250.178 244.837C250.178 252.671 259.793 256.045 265.599 250.247C269.402 246.448 269.335 245.579 264.889 240.669C259.915 235.179 255.154 233.845 251.953 237.043ZM160.366 242.346C155.267 244.401 156.414 253.357 162.17 256.433C167.678 259.378 175.667 257.594 175.667 253.418C175.667 252.017 174.427 248.556 172.913 245.728C170.188 240.645 166.832 239.741 160.366 242.346ZM201.392 242.359C197.656 246.089 199.859 255.409 205.277 258.788C210.006 261.739 211.539 261.718 214.602 258.655C217.609 255.654 217.667 253.695 214.932 247.809C211.781 241.03 205.323 238.43 201.392 242.359ZM401.861 252.355C401.861 256.116 402.362 259.195 402.974 259.195C403.586 259.195 406.077 259.958 408.509 260.891C412.101 262.268 412.767 261.149 412.053 254.931C410.883 244.728 401.861 242.444 401.861 252.355ZM539.326 252.419C536.995 258.49 540.274 264.894 545.231 263.94C547.829 263.44 549.553 260.489 549.553 256.536C549.553 249.056 541.814 245.94 539.326 252.419ZM471.681 264.945C466.968 269.653 467.617 274.544 473.363 277.617C481.572 282.006 484.672 274.914 478.334 266.25C475.662 262.603 474.294 262.334 471.681 264.945ZM504.005 268.347C501.916 273.781 507.499 280.462 514.131 280.462C522.061 280.462 519.738 266.141 511.622 264.99C508.005 264.477 504.979 265.811 504.005 268.347ZM431.134 272.207C431.134 279.058 441.028 284.933 445.331 280.634C449.418 276.551 444.333 268.762 436.85 267.648C432.597 267.018 431.134 268.185 431.134 272.207ZM286.287 274.012C279.541 280.751 282.143 286.977 292.112 287.939C299.119 288.617 300.739 287.82 300.739 283.699C300.739 280.911 298.485 276.591 295.734 274.103C291.058 269.876 290.433 269.871 286.287 274.012ZM327.35 279.039C327.35 282.894 329.564 286.775 332.728 288.466C343.453 294.2 347.58 283.745 337.401 276.626C329.282 270.945 327.35 271.407 327.35 279.039ZM240.473 281.849C238.129 287.955 242.796 295.082 249.138 295.082C256.19 295.082 255.591 286.039 248.214 281.147C242.839 277.583 242.086 277.652 240.473 281.849ZM157.854 284.835C156.135 289.314 163.115 296.412 169.238 296.412C174.427 296.412 175.774 288.923 171.372 284.526C166.053 279.212 159.959 279.35 157.854 284.835ZM198.867 289.101C196.945 294.455 202.028 301.728 207.694 301.728C210.956 301.728 212.923 299.929 212.923 296.943C212.923 288.027 201.533 281.674 198.867 289.101ZM536.74 287.501C534.763 289.476 537.256 301.946 540.298 305.298C542.677 307.92 553.545 302.733 553.545 298.977C553.545 295.835 543.744 285.778 540.683 285.778C539.462 285.778 537.69 286.554 536.74 287.501ZM402.527 290.345C400.699 291.002 399.2 293.83 399.2 296.632C399.2 300.295 401.071 301.728 405.853 301.728C409.73 301.728 412.506 300.2 412.506 298.065C412.506 293.28 406.753 288.827 402.527 290.345ZM355.957 311.508C350.297 313.018 349.914 318.537 355.164 322.889C361.311 327.985 368.598 325.159 368.598 317.678C368.598 311.001 364.797 309.148 355.957 311.508ZM430.045 314.023C427.786 319.898 434.62 326.927 440.429 324.699C443.13 323.665 444.484 320.717 443.96 317.024C442.898 309.56 432.611 307.34 430.045 314.023ZM499.436 311.476C495.74 315.169 497.872 325.579 502.872 328.253C507.09 330.508 508.638 330 511.001 325.587C514.772 318.548 511.936 309.703 505.908 309.703C503.324 309.703 500.41 310.501 499.436 311.476ZM263.997 320.887C256.868 328.009 263.43 340.37 273.335 338.464C279.961 337.188 279.506 325.893 272.646 321.342C268.407 318.532 266.459 318.428 263.997 320.887ZM176.851 328.774C175.569 332.812 176.468 335.614 179.842 338.079C192.009 346.965 199.851 337.781 188.307 328.163C180.564 321.708 179.071 321.788 176.851 328.774ZM393.128 328.976C391.435 333.695 396.031 341.604 400.467 341.604C405.643 341.604 407.844 337.239 405.845 330.946C403.99 325.111 395.014 323.721 393.128 328.976ZM534.031 327.427C530.885 330.569 532.139 338.198 536.38 341.715C539.776 344.53 541.234 344.408 544.625 341.021C547.887 337.76 548.116 335.739 545.726 331.281C542.748 325.723 537.477 323.984 534.031 327.427ZM110.765 335.149C108.24 341.723 113.927 349.579 121.208 349.579C125.713 349.579 127.741 348.122 127.682 344.927C127.482 333.881 114.201 326.206 110.765 335.149ZM145.578 337.483C143.1 339.958 141.073 342.949 141.073 344.126C141.073 347.954 148.681 352.7 153.364 351.793C159.988 350.509 160.568 345.923 154.98 339.025C150.379 333.349 149.809 333.256 145.578 337.483ZM332.673 346.92C332.673 353.68 333.697 354.895 339.408 354.895C343.115 354.895 346.84 353.085 347.689 350.873C349.693 345.658 344.054 338.945 337.67 338.945C333.891 338.945 332.673 340.891 332.673 346.92ZM421.452 356.225C418.903 362.857 422.589 368.187 429.721 368.187C436.999 368.187 438.015 365.43 433.702 357.378C430.426 351.264 423.605 350.621 421.452 356.225ZM207.6 361.217C207.6 368.735 213.902 374.719 219.541 372.555C225.246 370.37 224.536 360.917 218.421 357.647C210.458 353.391 207.6 354.334 207.6 361.217ZM487.137 358.737C484.393 362.041 484.369 363.671 487.017 366.858C488.84 369.051 491.908 370.845 493.837 370.845C500.096 370.845 501.097 365.122 495.769 359.8C491.11 355.143 490.216 355.034 487.137 358.737ZM516.864 359.803C512.691 362.445 515.145 369.838 520.933 372.055C527.075 374.41 531.5 369.141 528.014 363.62C524.544 358.125 521.279 357.009 516.864 359.803ZM246.253 362.761C243.823 366.688 250.873 376.162 256.224 376.162C262.379 376.162 265.014 369.245 260.793 364.165C257.094 359.712 248.645 358.896 246.253 362.761ZM288.389 366.877C287.45 369.322 288.541 373.089 290.856 375.402C296.508 381.048 304.004 377.813 302.921 370.191C301.873 362.809 290.912 360.31 288.389 366.877ZM567.13 366.52C562.686 371.872 566.448 378.82 573.788 378.82C580.794 378.82 582.575 371.667 576.962 366.06C572.843 361.945 570.852 362.038 567.13 366.52ZM449.817 377.425C445.394 382.747 448.284 389.454 455.001 389.454C461.3 389.454 462.431 381.149 456.768 376.455C454 374.16 452.335 374.394 449.817 377.425ZM150.011 390.802C149.072 393.247 150.163 397.014 152.478 399.327C158.13 404.973 165.627 401.738 164.544 394.117C163.495 386.734 152.534 384.236 150.011 390.802ZM396.989 392.54C397.473 395.959 399.666 398.758 401.861 398.758C407.633 398.758 406.838 388.388 400.981 387.261C397.202 386.532 396.305 387.718 396.989 392.54ZM226.228 398.758C226.228 406.696 227.128 408.062 232.349 408.062C249.508 408.062 245.455 389.805 228.224 389.491C227.125 389.47 226.228 393.641 226.228 398.758ZM514.65 395.946C512.002 402.836 514.895 409.376 520.973 410.242C525.709 410.915 526.934 409.796 526.934 404.793C526.934 394.582 517.721 387.949 514.65 395.946ZM549.83 398.997C547.499 405.064 550.197 408.062 557.978 408.062C563.069 408.062 564.357 407.015 563.143 403.857C562.254 401.544 561.528 398.553 561.528 397.211C561.528 393.021 551.538 394.547 549.83 398.997ZM352.25 401.451C351.399 403.663 352.184 407.252 353.991 409.426C359.132 415.617 367.089 414.192 369.995 406.56C373.555 397.203 373.723 397.429 363.193 397.429C357.259 397.429 353.224 398.912 352.25 401.451ZM475.005 405.521C472.817 412.406 477 417.385 483.033 415.072C488.635 412.924 487.264 401.77 481.256 400.627C478.6 400.122 476.098 402.078 475.005 405.521ZM427.56 406.603C425.165 412.837 428.411 418.696 434.255 418.696C438.372 418.696 439.293 417.159 438.627 411.409C437.696 403.341 430.082 400.037 427.56 406.603ZM188.973 411.872C188.973 420.304 198.433 423.704 204.572 417.478C208.612 413.376 208.553 412.776 203.766 409.229C195.604 403.187 188.973 404.37 188.973 411.872ZM121.482 420.025C117.78 429.661 129.071 438.415 134.912 430.435C137.214 427.29 137.408 424.448 135.554 420.987C132.371 415.046 123.624 414.448 121.482 420.025ZM314.5 421.822C315.671 430.073 328.681 430.866 328.681 422.683C328.681 418.823 326.619 417.13 321.153 416.505C314.606 415.756 313.736 416.449 314.5 421.822ZM581.931 417.81C580.954 418.783 580.156 421.774 580.156 424.456C580.156 430.698 592.902 431.219 595.263 425.073C597.623 418.93 586.742 413.002 581.931 417.81ZM389.426 425.581C387.473 430.664 393.29 437.363 398.064 435.534C400.153 434.731 401.861 431.953 401.861 429.356C401.861 423.417 391.47 420.264 389.426 425.581ZM535.396 432.652C536.434 439.941 546.738 442.344 549.223 435.877C551.597 429.696 548.97 426.671 541.226 426.671C535.822 426.671 534.709 427.811 535.396 432.652ZM231.652 433.194C229.195 436.15 229.704 438.118 234.033 442.443C240.633 449.035 243.738 449.368 245.91 443.711C249.055 435.523 237.064 426.681 231.652 433.194ZM619.186 436.419C618.21 437.392 617.411 440.383 617.411 443.065C617.411 446.707 619.428 447.938 625.395 447.938C633.764 447.938 635.863 443.509 630.185 437.836C626.651 434.306 621.911 433.694 619.186 436.419ZM283.886 441.736C280.597 445.021 282.08 452.672 286.321 454.299C297.942 458.754 302.253 452.536 293.211 444.362C287.833 439.5 286.5 439.125 283.886 441.736ZM317.656 459.935C316.19 463.752 320.783 471.908 324.349 471.823C329.586 471.695 333.069 466.66 331.448 461.562C329.37 455.027 319.966 453.916 317.656 459.935ZM580.156 462.641C580.156 470.443 586.455 473.91 592.109 469.223C597.251 464.959 592.682 455.913 585.385 455.913C581.563 455.913 580.156 457.726 580.156 462.641ZM392.697 460.99C390.852 463.967 393.838 472.538 397.588 475.034C400.472 476.956 407.184 472.785 407.184 469.069C407.184 466.206 399.419 458.571 396.507 458.571C395.233 458.571 393.519 459.658 392.697 460.99ZM543.85 462.593C542.999 464.805 543.784 468.394 545.591 470.568C550.229 476.151 558.867 475.611 558.867 469.736C558.867 460.169 546.958 454.501 543.85 462.593ZM180.989 470.249C180.989 479.096 184.374 482.496 193.183 482.496C198.728 482.496 197.776 472.681 191.634 466.546C183.991 458.911 180.989 459.956 180.989 470.249ZM257.07 468.213C254.989 473.631 259.926 479.838 266.312 479.838C272.92 479.838 274.948 475.701 271.496 469.26C268.04 462.808 259.386 462.181 257.07 468.213ZM216.462 470.754C214.128 476.828 225.095 487.35 229.339 483.11C231.79 480.662 231.694 478.429 228.919 473.245C224.858 465.669 218.876 464.472 216.462 470.754ZM479.438 468.954C474.739 471.855 476.559 480.875 482.057 481.933C484.417 482.384 487.142 480.691 488.111 478.168C490.343 472.354 484.308 465.945 479.438 468.954ZM444.971 472.394C437.797 479.561 442.222 485.87 451.874 482.228C457.013 480.287 457.524 479.075 455.108 474.564C451.805 468.402 449.469 467.902 444.971 472.394ZM141.102 475.816C136.743 481.061 139.588 487.813 146.155 487.813C152.742 487.813 155.211 483.99 153.04 477.155C151.049 470.892 145.692 470.292 141.102 475.816ZM620.738 480.236C615.974 484.995 616.629 489.868 622.454 492.981C630.435 497.247 634.794 490.149 628.761 482.706C625.003 478.07 623.399 477.578 620.738 480.236ZM512.053 486.159C509.9 491.766 512.923 495.788 519.293 495.788C523.312 495.788 524.432 494.307 523.793 489.833C522.801 482.884 514.331 480.234 512.053 486.159ZM349.813 489.142C344.701 493.09 344.701 493.169 349.813 497.117C356.442 502.232 360.42 502.157 364.845 496.83C367.863 493.196 367.634 491.997 363.331 488.855C356.998 484.227 356.157 484.245 349.813 489.142ZM420.489 505.092C420.489 510.704 421.732 511.738 428.472 511.738C436.842 511.738 438.941 507.309 433.262 501.636C427.533 495.913 420.489 497.816 420.489 505.092ZM589.914 502.878C586.542 506.243 588.155 513.833 592.604 515.539C595.1 516.496 598.81 515.508 601.024 513.298C604.273 510.053 604.369 508.612 601.556 505.225C597.961 500.9 592.91 499.882 589.914 502.878ZM199.617 510.252C199.617 518.23 203.236 520.718 211.744 518.583C219.533 516.629 220.241 510.334 213.098 506.514C204.404 501.867 199.617 503.197 199.617 510.252ZM270.278 511.004C268.641 515.26 274.602 522.371 279.802 522.371C283.37 522.371 285.156 517.132 283.434 511.714C281.369 505.214 272.681 504.744 270.278 511.004ZM523.139 521.486C520.864 527.412 524.9 530.998 532.615 529.908C536.766 529.32 539.199 526.981 539.76 523.036C540.476 517.988 539.38 517.055 532.727 517.055C527.822 517.055 524.198 518.729 523.139 521.486ZM491.301 523.897C490.25 526.635 491.408 529.743 494.29 531.923C500.692 536.772 504.314 535.161 504.314 527.467C504.314 519.668 494.01 516.842 491.301 523.897ZM622.576 523.889C618.518 528.775 622.137 536.992 628.346 536.992C633.404 536.992 634.514 526.622 629.868 522.77C626.925 520.332 625.328 520.577 622.576 523.889ZM342.431 526.803C341.454 527.776 340.656 531.365 340.656 534.778C340.656 539.898 342.05 540.98 348.639 540.98C355.736 540.98 356.623 540.095 356.623 533.005C356.623 526.423 355.539 525.03 350.414 525.03C346.997 525.03 343.405 525.827 342.431 526.803ZM567.05 531.434C563.226 536.038 565.363 545.156 570.749 547.222C575.831 549.17 580.746 542.551 579.695 535.171C578.66 527.914 571.688 525.854 567.05 531.434ZM385.924 539.616C381.565 544.861 384.41 551.613 390.977 551.613C397.968 551.613 400.086 547.602 396.568 541.036C393.144 534.642 390.363 534.273 385.924 539.616ZM189.068 542.195C184.795 547.339 189.611 554.272 197.459 554.272C201.528 554.272 202.451 552.719 201.789 546.985C200.825 538.635 194.122 536.112 189.068 542.195ZM307.027 542.301C306.107 544.696 306.583 547.881 308.087 549.383C312.424 553.716 320.698 550.794 320.698 544.93C320.698 538.17 309.446 536.003 307.027 542.301ZM420.489 544.747C420.489 552.097 425.013 554.646 431.833 551.143C435.543 549.234 435.942 547.644 433.736 543.526C429.627 535.86 420.489 536.7 420.489 544.747ZM228.003 542.753C221.593 549.157 234.047 559.923 241.101 554.075C244.491 551.265 244.417 550.218 240.518 545.916C235.923 540.842 231.127 539.629 228.003 542.753ZM269.2 551.969C266.243 556.701 266.246 558.017 269.226 559.905C278.548 565.806 286.396 560.152 281.659 550.949C278.431 544.683 273.503 545.087 269.2 551.969ZM600.354 555.938C598.483 560.806 603.007 567.563 608.137 567.563C612.994 567.563 615.381 559.562 611.81 555.263C607.72 550.342 602.381 550.656 600.354 555.938ZM497.55 566.37C494.95 569.499 494.739 571.872 496.775 575.097C501.315 582.285 506.975 580.44 506.975 571.771C506.975 562.725 502.64 560.239 497.55 566.37ZM356.846 568.403C351.976 573.268 353.623 578.01 360.808 579.813C368.704 581.791 373.483 578.303 371.163 572.258C369.119 566.938 360.606 564.647 356.846 568.403ZM578.378 574.416C577.492 576.721 578.53 580.371 580.685 582.524C584.07 585.903 585.034 585.922 587.748 582.655C591.548 578.079 589.039 570.222 583.78 570.222C581.694 570.222 579.264 572.109 578.378 574.416ZM203.863 594.229C201.473 600.447 204.845 606.192 210.883 606.192C218.475 606.192 220.963 598.347 214.798 593.844C208.443 589.202 205.758 589.295 203.863 594.229ZM429.803 586.172C427.216 590.353 430.878 594.147 437.499 594.147C445.36 594.147 447.795 591.539 444.091 587.081C440.612 582.894 432.163 582.357 429.803 586.172ZM284.773 594.229C284.773 602.826 291.034 607.563 295.933 602.669C300.425 598.182 296.138 586.172 290.044 586.172C285.949 586.172 284.773 587.969 284.773 594.229ZM557.315 592.754C555.269 600.896 556.961 603.422 562.93 601.133C565.498 600.149 566.882 597.164 566.371 593.703C565.128 585.268 559.349 584.662 557.315 592.754ZM523.386 590.603C520.246 593.737 521.492 601.372 525.715 604.873C531.452 609.629 536.072 604.416 533.874 595.67C532.24 589.173 527.237 586.754 523.386 590.603ZM467.394 596.26C466.572 597.592 467.484 600.846 469.419 603.491C473.733 609.384 482.488 606.891 481.2 600.136C480.247 595.149 469.882 592.238 467.394 596.26ZM354.627 609.15C349.97 611.096 350.481 619.398 355.516 623.575C361.221 628.304 368.598 623.54 368.598 615.124C368.598 608.744 362.174 605.997 354.627 609.15ZM501.895 617.681C501.123 618.928 502.177 622.216 504.237 624.991C507.72 629.686 508.29 629.729 512.449 625.637C514.908 623.218 516.108 619.93 515.116 618.327C512.984 614.879 503.902 614.435 501.895 617.681ZM427.07 623.505C424.907 627.004 430.556 634.022 435.535 634.022C437.597 634.022 440.019 632.108 440.919 629.766C443.524 622.982 430.918 617.285 427.07 623.505ZM271.496 630C267.074 635.322 270.019 641.997 276.789 641.997C279.81 641.997 282.974 640.187 283.823 637.975C285.353 633.995 280.666 626.047 276.789 626.047C275.685 626.047 273.301 627.825 271.496 630ZM393.849 631.419C390.397 637.86 392.425 641.997 399.033 641.997C406.508 641.997 411.292 634.979 407.184 630.034C402.588 624.502 397.258 625.055 393.849 631.419ZM468.285 630.159C463.998 635.319 467.013 641.997 473.629 641.997C477.557 641.997 479.034 640.258 479.034 635.635C479.034 628.046 472.716 624.827 468.285 630.159ZM335.789 650.453C336.483 655.336 338.322 656.618 344.648 656.618C350.856 656.618 352.631 655.437 352.631 651.301C352.631 647.221 350.574 645.788 343.772 645.136C335.839 644.376 335.006 644.932 335.789 650.453ZM423.816 654.39C421.987 655.129 420.489 658.024 420.489 660.826C420.489 664.457 422.357 665.922 426.985 665.922C434.968 665.922 437.997 661.674 433.699 656.501C430.322 652.439 429.234 652.208 423.816 654.39Z" fill="white"/>
</g>
</svg>
