<svg width="90" height="90" viewBox="0 0 90 90" fill="none" xmlns="http://www.w3.org/2000/svg">
<g clip-path="url(#clip0_6_709)">
<path d="M45.0004 89.9966C69.8513 89.9966 89.9969 69.851 89.9969 45.0001C89.9969 20.1492 69.8513 0.00361633 45.0004 0.00361633C20.1495 0.00361633 0.00390625 20.1492 0.00390625 45.0001C0.00390625 69.851 20.1495 89.9966 45.0004 89.9966Z" fill="#8D00AF"/>
<path d="M0 44.9578C0.00191181 37.9399 1.64755 31.02 4.80507 24.7526C7.96259 18.4852 12.5442 13.0445 18.1828 8.86635C38.141 -5.94322 66.324 -1.77193 81.1336 18.1828C86.3111 25.1342 89.36 33.4388 89.9103 42.089C89.0366 42.405 88.1978 42.8103 87.4072 43.2984C83.2166 45.8894 80.0244 50.6636 75.1183 51.1101C71.7521 51.4177 68.5635 49.4859 66.1359 47.1339C63.7084 44.782 61.7642 41.9466 59.2101 39.73C55.2853 36.3221 50.1768 34.5959 44.9894 34.9249C39.8019 35.2538 34.9523 37.6114 31.4894 41.4878C28.9986 44.281 26.826 48.0691 23.1082 48.5191C18.0545 49.1238 14.1047 42.9591 9.0457 43.4302C7.41094 43.5832 5.93086 44.4251 4.34707 44.8365C2.9265 45.2096 1.43916 45.2511 0 44.9578H0Z" fill="#AA0DD1"/>
<path d="M68.4899 41.9959V62.0121C68.5079 64.7285 67.5256 67.3564 65.7301 69.3949L61.1229 74.5049C60.1831 75.5465 59.0353 76.3794 57.7537 76.9498C56.472 77.5202 55.085 77.8155 53.6821 77.8166H33.643C32.2402 77.8151 30.8533 77.5196 29.5717 76.9492C28.2901 76.3788 27.1422 75.5461 26.2022 74.5049L21.595 69.3949C19.7995 67.3564 18.8171 64.7285 18.8352 62.0121V41.9959C18.8334 39.375 20.7424 37.2656 23.1032 37.2656H24.9155C25.0664 37.2663 25.2172 37.2751 25.3672 37.292C27.5118 37.5381 29.1799 39.5508 29.1799 41.9959V43.5427H58.1364V41.9959C58.1364 39.992 59.2631 38.2763 60.8487 37.589C61.2007 37.434 61.574 37.3327 61.9561 37.2885C62.1044 37.273 62.2534 37.2654 62.4026 37.2656H64.2149C66.5774 37.2656 68.4899 39.375 68.4899 41.9959Z" fill="#F39E22"/>
<path d="M29.1797 75.5965V76.776C28.0496 76.2168 27.0357 75.4485 26.1915 74.5119L21.5842 69.402C19.7888 67.3635 18.8064 64.7355 18.8245 62.0191V41.9959C18.8333 39.375 20.7422 37.2656 23.103 37.2656H24.9153C25.0662 37.2664 25.217 37.2752 25.367 37.292C23.219 37.5416 21.5473 39.5543 21.5473 41.9994V62.0121C21.5473 64.19 25.1684 68.5934 27.5784 71.3285C28.6131 72.5093 29.1823 74.0265 29.1797 75.5965Z" fill="#EA792E"/>
<path d="M64.3534 37.2655C62.3829 37.6822 60.85 39.6861 60.85 41.9958V47.2394C60.8503 47.5957 60.7803 47.9486 60.6441 48.2779C60.5079 48.6071 60.3081 48.9064 60.0563 49.1584C59.8044 49.4105 59.5053 49.6104 59.1761 49.7468C58.8469 49.8832 58.4941 49.9534 58.1377 49.9534V41.9976C58.1342 41.1383 58.347 40.292 58.7565 39.5366C59.3981 38.3466 60.5916 37.4361 61.9522 37.2831C62.3723 37.2392 63.9157 37.2655 64.3534 37.2655Z" fill="#EA792E"/>
<path d="M38.8371 18.1601V43.5429H29.1797V18.1601C29.1797 15.5444 31.0887 13.4245 33.4477 13.4245H34.5604C34.8291 13.4234 35.0973 13.4511 35.3602 13.5071C37.343 13.922 38.8371 15.8468 38.8371 18.1601Z" fill="#F39E22"/>
<path d="M35.3672 13.5071C33.3932 13.9219 31.8973 15.845 31.8973 18.16V47.2413C31.8975 47.598 31.8273 47.9514 31.6908 48.281C31.5543 48.6106 31.354 48.91 31.1016 49.1621C30.8492 49.4143 30.5495 49.6141 30.2197 49.7502C29.8899 49.8863 29.5365 49.956 29.1797 49.9553V18.16C29.1797 15.5444 31.0887 13.4245 33.4477 13.4245H34.5603C34.8315 13.4229 35.102 13.4506 35.3672 13.5071Z" fill="#EA792E"/>
<path d="M48.4855 9.59422V43.5429H38.8369V9.59422C38.8369 6.98036 40.7459 4.86043 43.1031 4.86043H44.2176C44.4864 4.85992 44.7546 4.88821 45.0174 4.94481C46.9932 5.36141 48.4855 7.28446 48.4855 9.59422Z" fill="#F39E22"/>
<path d="M45.0174 4.94481C43.0434 5.3579 41.5492 7.28094 41.5492 9.59422V36.6083C41.5492 37.3276 41.2635 38.0175 40.7548 38.5262C40.2461 39.0348 39.5563 39.3206 38.8369 39.3206V9.59422C38.8369 6.98036 40.7459 4.86043 43.1031 4.86043H44.2176C44.4864 4.85992 44.7546 4.88821 45.0174 4.94481Z" fill="#EA792E"/>
<path d="M58.1362 15.6252V43.5427H48.4858V15.6252C48.4858 13.0078 50.4001 10.8984 52.7556 10.8984H53.87C54.1394 10.8979 54.4082 10.9262 54.6716 10.9828C56.6456 11.3906 58.1362 13.3154 58.1362 15.6252Z" fill="#F39E22"/>
<path d="M54.6682 10.9757C52.6889 11.3888 51.1965 13.3136 51.1965 15.6251V39.7072C51.196 40.4267 50.9099 41.1166 50.4009 41.6252C49.892 42.1338 49.2019 42.4195 48.4824 42.4195V15.6251C48.4859 13.0077 50.4002 10.8984 52.7557 10.8984H53.8701C54.1381 10.8958 54.4056 10.9217 54.6682 10.9757Z" fill="#EA792E"/>
<path d="M38.8371 18.1601V30.5052H29.1797V18.1601C29.1797 15.5444 31.0887 13.4245 33.4477 13.4245H34.5604C34.8291 13.4234 35.0973 13.4511 35.3602 13.5071C37.343 13.922 38.8371 15.8468 38.8371 18.1601Z" fill="#FA4654"/>
<path d="M35.3672 13.5071C33.3932 13.9219 31.8973 15.845 31.8973 18.16V30.5051H29.1797V18.16C29.1797 15.5444 31.0887 13.4245 33.4477 13.4245H34.5603C34.8315 13.4229 35.102 13.4506 35.3672 13.5071Z" fill="#E52E44"/>
<path d="M38.8354 32.3753H29.1851V35.1861H38.8354V32.3753Z" fill="#FA4654"/>
<path d="M38.8354 37.6031H29.1851V39.3205H38.8354V37.6031Z" fill="#FA4654"/>
<path d="M31.8988 32.3753H29.1865V35.1861H31.8988V32.3753Z" fill="#E52E44"/>
<path d="M31.8988 37.6031H29.1865V39.3205H31.8988V37.6031Z" fill="#E52E44"/>
<path d="M48.4855 9.59422V21.9446H38.8369V9.59422C38.8369 6.98036 40.7459 4.86043 43.1031 4.86043H44.2176C44.4864 4.85992 44.7546 4.88821 45.0174 4.94481C46.9932 5.36141 48.4855 7.28446 48.4855 9.59422Z" fill="#FA4654"/>
<path d="M45.0174 4.94481C43.0434 5.3579 41.5492 7.28094 41.5492 9.59422V21.9446H38.8369V9.59422C38.8369 6.98036 40.7459 4.86043 43.1031 4.86043H44.2176C44.4864 4.85992 44.7546 4.88821 45.0174 4.94481Z" fill="#E52E44"/>
<path d="M48.4873 23.8149H38.8369V26.6256H48.4873V23.8149Z" fill="#FA4654"/>
<path d="M48.4873 29.0408H38.8369V30.7582H48.4873V29.0408Z" fill="#FA4654"/>
<path d="M38.837 26.6239H41.5493V23.8131H38.837V26.6239Z" fill="#E52E44"/>
<path d="M38.837 30.7598H41.5493V29.0424H38.837V30.7598Z" fill="#E52E44"/>
<path d="M58.1362 15.6252V27.9492H48.4858V15.6252C48.4858 13.0078 50.4001 10.8984 52.7556 10.8984H53.87C54.1394 10.8979 54.4082 10.9262 54.6716 10.9828C56.6456 11.3906 58.1362 13.3154 58.1362 15.6252Z" fill="#FA4654"/>
<path d="M54.6681 10.9757C52.6888 11.3888 51.1964 13.3136 51.1964 15.6251V27.9492H48.4858V15.6251C48.4858 13.0077 50.4001 10.8984 52.7556 10.8984H53.87C54.138 10.8958 54.4055 10.9217 54.6681 10.9757Z" fill="#E52E44"/>
<path d="M58.1377 29.8195H48.4873V32.6302H58.1377V29.8195Z" fill="#FA4654"/>
<path d="M58.1377 35.0455H48.4873V36.7629H58.1377V35.0455Z" fill="#FA4654"/>
<path d="M48.4861 32.6285H51.2002V29.8177H48.4861V32.6285Z" fill="#E52E44"/>
<path d="M48.4861 36.7628H51.2002V35.0455H48.4861V36.7628Z" fill="#E52E44"/>
<path d="M38.4342 43.0453H35.3914C34.6283 43.0453 34.0098 43.6639 34.0098 44.427C34.0098 45.19 34.6283 45.8086 35.3914 45.8086H38.4342C39.1972 45.8086 39.8158 45.19 39.8158 44.427C39.8158 43.6639 39.1972 43.0453 38.4342 43.0453Z" fill="#FA4654"/>
<path d="M45.0439 41.7025V38.6597C45.0439 37.8966 44.4254 37.278 43.6623 37.278C42.8992 37.278 42.2807 37.8966 42.2807 38.6597V41.7025C42.2807 42.4655 42.8992 43.0841 43.6623 43.0841C44.4254 43.0841 45.0439 42.4655 45.0439 41.7025Z" fill="#FA4654"/>
<path d="M51.9313 43.0453H48.8885C48.1254 43.0453 47.5068 43.6639 47.5068 44.427C47.5068 45.19 48.1254 45.8086 48.8885 45.8086H51.9313C52.6943 45.8086 53.3129 45.19 53.3129 44.427C53.3129 43.6639 52.6943 43.0453 51.9313 43.0453Z" fill="#FA4654"/>
<path d="M60.0892 59.7129L59.1118 60.6902L59.0907 60.7095L56.6808 63.1195C54.9711 64.8293 52.9414 66.1856 50.7075 67.1109C48.4737 68.0363 46.0794 68.5125 43.6615 68.5125C41.2436 68.5125 38.8494 68.0363 36.6155 67.1109C34.3817 66.1856 32.352 64.8293 30.6423 63.1195L27.2339 59.7129L29.6649 57.2818L30.6423 56.3027C34.0953 52.8501 38.7785 50.9104 43.6615 50.9104C48.5446 50.9104 53.2277 52.8501 56.6808 56.3027L60.0892 59.7129Z" fill="#E52E44"/>
<path d="M60.0894 59.7129L59.1121 60.6902L59.091 60.7095C55.6365 64.1531 50.9568 66.0851 46.0792 66.0815C41.2016 66.0779 36.5247 64.1389 33.0754 60.6902L29.667 57.2818L30.6443 56.3027C34.0974 52.8501 38.7805 50.9104 43.6636 50.9104C48.5466 50.9104 53.2297 52.8501 56.6828 56.3027L60.0894 59.7129Z" fill="#FA4654"/>
<path d="M53.4726 58.5896L52.8872 59.1749L52.8749 59.1855L51.4352 60.6251C50.4144 61.6461 49.2024 62.456 47.8686 63.0085C46.5347 63.5611 45.1051 63.8455 43.6613 63.8455C42.2176 63.8455 40.7879 63.5611 39.4541 63.0085C38.1202 62.456 36.9082 61.6461 35.8874 60.6251L33.8501 58.5896L35.302 57.1376L35.8874 56.554C36.9081 55.5329 38.12 54.7228 39.4539 54.1701C40.7878 53.6175 42.2175 53.333 43.6613 53.333C45.1052 53.333 46.5349 53.6175 47.8687 54.1701C49.2026 54.7228 50.4145 55.5329 51.4352 56.554L53.4726 58.5896Z" fill="white"/>
<path d="M47.5069 58.4964C47.5062 59.3613 47.214 60.2007 46.6776 60.8791C46.1411 61.5575 45.3916 62.0353 44.5502 62.2353C44.2589 62.3055 43.9604 62.3409 43.6608 62.3408C42.6412 62.3408 41.6633 61.9357 40.9424 61.2148C40.2214 60.4938 39.8164 59.516 39.8164 58.4964C39.8164 57.4768 40.2214 56.499 40.9424 55.7781C41.6633 55.0571 42.6412 54.6521 43.6608 54.6521C43.9603 54.6514 44.2589 54.6862 44.5502 54.7558C45.3918 54.9562 46.1413 55.4343 46.6777 56.113C47.2142 56.7917 47.5063 57.6313 47.5069 58.4964Z" fill="#EA792E"/>
<path d="M47.5065 58.4965C47.5059 59.3614 47.2137 60.2008 46.6772 60.8792C46.1408 61.5576 45.3913 62.0353 44.5499 62.2353C43.7075 62.0364 42.9569 61.5589 42.4197 60.8802C41.8826 60.2014 41.5903 59.3612 41.5903 58.4956C41.5903 57.63 41.8826 56.7898 42.4197 56.111C42.9569 55.4323 43.7075 54.9548 44.5499 54.7559C45.3915 54.9562 46.141 55.4343 46.6774 56.113C47.2139 56.7917 47.5059 57.6314 47.5065 58.4965Z" fill="#F39E22"/>
<path d="M46.0035 58.4966C46.0048 59.0246 45.8278 59.5376 45.5011 59.9523C45.1743 60.3671 44.7171 60.6594 44.2035 60.7818C44.0256 60.8243 43.8433 60.8456 43.6603 60.8451C43.0502 60.8283 42.4707 60.5742 42.0451 60.1368C41.6195 59.6994 41.3813 59.1131 41.3813 58.5028C41.3813 57.8924 41.6195 57.3062 42.0451 56.8687C42.4707 56.4313 43.0502 56.1772 43.6603 56.1605C43.8433 56.16 44.0256 56.1812 44.2035 56.2238C44.7151 56.3457 45.1707 56.6361 45.4972 57.0484C45.8237 57.4606 46.002 57.9707 46.0035 58.4966Z" fill="#334353"/>
<path d="M23.4634 61.0331C23.3161 61.0334 23.1702 61.0046 23.0341 60.9481C22.898 60.8917 22.7745 60.8089 22.6706 60.7044L22.472 60.5058C22.2629 60.2956 22.1455 60.0112 22.1455 59.7148C22.1455 59.4183 22.2629 59.1339 22.472 58.9237L22.6706 58.7251C22.8321 58.6113 23.0178 58.5367 23.2132 58.5071C23.4085 58.4775 23.608 58.4938 23.7959 58.5546C23.9839 58.6155 24.1551 58.7193 24.2959 58.8578C24.4368 58.9963 24.5435 59.1656 24.6076 59.3525C24.6717 59.5394 24.6914 59.7386 24.6652 59.9344C24.6389 60.1302 24.5675 60.3172 24.4565 60.4806C24.3455 60.644 24.1979 60.7793 24.0256 60.8758C23.8532 60.9723 23.6607 61.0274 23.4634 61.0366V61.0331Z" fill="#14A36D"/>
<path d="M46.0632 72.3078C45.7787 72.3041 45.5062 72.1925 45.3008 71.9956C45.0953 71.7988 44.9722 71.5313 44.9564 71.2472C44.9406 70.9631 45.0331 70.6836 45.2154 70.4651C45.3977 70.2466 45.6561 70.1054 45.9384 70.0701C46.1142 70.049 46.3041 70.0261 46.4851 70.0015C46.7741 69.9729 47.0629 70.0572 47.291 70.2369C47.5192 70.4166 47.6688 70.6777 47.7086 70.9654C47.7484 71.253 47.6752 71.5449 47.5045 71.7798C47.3337 72.0147 47.0786 72.1743 46.7927 72.2252C46.5923 72.2515 46.3919 72.2779 46.1898 72.3007C46.1476 72.3043 46.1054 72.3078 46.0632 72.3078ZM41.2539 72.3078C41.2117 72.3104 41.1694 72.3104 41.1273 72.3078C40.9251 72.2849 40.7248 72.2603 40.5244 72.2322C40.3785 72.2119 40.238 72.163 40.111 72.0884C39.984 72.0138 39.8729 71.9149 39.7841 71.7974C39.6953 71.6799 39.6305 71.546 39.5935 71.4035C39.5564 71.2609 39.5478 71.1125 39.5681 70.9666C39.5884 70.8207 39.6373 70.6802 39.7119 70.5532C39.7865 70.4262 39.8854 70.3151 40.0029 70.2263C40.1204 70.1375 40.2543 70.0727 40.3968 70.0357C40.5394 69.9986 40.6878 69.99 40.8337 70.0103C41.0095 70.0349 41.1958 70.0578 41.3769 70.0771C41.665 70.1049 41.9313 70.2429 42.1199 70.4625C42.3086 70.682 42.4051 70.966 42.3892 71.255C42.3733 71.544 42.2463 71.8157 42.0347 72.0132C41.8231 72.2108 41.5433 72.3188 41.2539 72.3148V72.3078ZM51.298 71.0334C51.0355 71.0343 50.781 70.9432 50.5788 70.7758C50.3766 70.6084 50.2395 70.3754 50.1914 70.1174C50.1433 69.8593 50.1872 69.5926 50.3155 69.3636C50.4439 69.1346 50.6485 68.9579 50.8937 68.8642C51.0695 68.7992 51.233 68.7306 51.4017 68.6603C51.6763 68.5456 51.9852 68.5447 52.2605 68.6578C52.5357 68.7709 52.7548 68.9887 52.8695 69.2632C52.9842 69.5378 52.9851 69.8467 52.872 70.122C52.7589 70.3973 52.5411 70.6163 52.2666 70.731C52.0785 70.8101 51.8904 70.8857 51.7005 70.9578C51.572 71.0069 51.4356 71.032 51.298 71.0316V71.0334ZM36.0226 71.0334C35.8843 71.0332 35.7473 71.0076 35.6183 70.9578C35.4285 70.8857 35.2404 70.8101 35.0523 70.731C34.9163 70.6742 34.7929 70.5912 34.689 70.4867C34.5851 70.3822 34.5028 70.2583 34.4468 70.122C34.3909 69.9857 34.3623 69.8397 34.3627 69.6924C34.3631 69.545 34.3926 69.3992 34.4494 69.2632C34.5641 68.9887 34.7831 68.7709 35.0584 68.6578C35.1947 68.6018 35.3407 68.5732 35.488 68.5736C35.6354 68.5741 35.7812 68.6035 35.9171 68.6603C36.0929 68.7306 36.2546 68.7992 36.4251 68.8642C36.6702 68.9578 36.8747 69.1344 37.0031 69.3632C37.1314 69.592 37.1755 69.8586 37.1276 70.1165C37.0798 70.3744 36.943 70.6074 36.7411 70.775C36.5392 70.9425 36.285 71.0339 36.0226 71.0334ZM56.0318 68.467C55.7939 68.4683 55.5618 68.394 55.369 68.2547C55.1762 68.1155 55.0326 67.9186 54.959 67.6924C54.8855 67.4662 54.8857 67.2225 54.9597 66.9964C55.0338 66.7704 55.1777 66.5738 55.3708 66.4349C55.5185 66.3277 55.6644 66.2205 55.8103 66.108C55.9275 66.0186 56.061 65.9532 56.2035 65.9155C56.3459 65.8778 56.4943 65.8686 56.6404 65.8882C56.7864 65.9079 56.9271 65.9561 57.0544 66.0302C57.1818 66.1042 57.2933 66.2026 57.3827 66.3198C57.472 66.4369 57.5374 66.5705 57.5751 66.713C57.6128 66.8554 57.6221 67.0038 57.6024 67.1498C57.5827 67.2958 57.5345 67.4365 57.4605 67.5639C57.3864 67.6913 57.288 67.8028 57.1708 67.8921C57.0091 68.017 56.8474 68.1365 56.6822 68.256C56.4927 68.3924 56.2653 68.4662 56.0318 68.467ZM31.2871 68.467C31.0516 68.4666 30.8222 68.3922 30.6314 68.2543C30.4662 68.1371 30.3027 68.0158 30.141 67.8904C29.9171 67.7054 29.7737 67.4409 29.7406 67.1524C29.7076 66.8638 29.7876 66.5738 29.9638 66.343C30.1401 66.1121 30.3988 65.9586 30.6859 65.9144C30.9729 65.8703 31.2658 65.939 31.5033 66.1062C31.6492 66.217 31.7951 66.3259 31.9427 66.4332C32.1342 66.5723 32.2769 66.7683 32.3504 66.9933C32.4238 67.2183 32.4244 67.4607 32.3519 67.686C32.2794 67.9114 32.1375 68.108 31.9466 68.2479C31.7557 68.3878 31.5255 68.4639 31.2888 68.4652L31.2871 68.467ZM60.0343 64.8634C59.8126 64.8629 59.596 64.7967 59.4118 64.6732C59.2277 64.5497 59.0841 64.3745 58.9994 64.1696C58.9146 63.9648 58.8924 63.7394 58.9355 63.5219C58.9786 63.3044 59.0851 63.1045 59.2415 62.9474L59.6494 62.5396C59.7502 62.4233 59.874 62.329 60.0129 62.2626C60.1518 62.1962 60.3029 62.1591 60.4568 62.1536C60.6107 62.1482 60.764 62.1745 60.9073 62.2309C61.0506 62.2873 61.1807 62.3725 61.2896 62.4814C61.3985 62.5903 61.4837 62.7204 61.5401 62.8637C61.5965 63.007 61.6228 63.1603 61.6174 63.3142C61.6119 63.4681 61.5748 63.6192 61.5084 63.7581C61.442 63.897 61.3477 64.0208 61.2314 64.1216L60.8236 64.5312C60.7203 64.6357 60.5975 64.7189 60.462 64.7759C60.3266 64.8329 60.1813 64.8626 60.0343 64.8634ZM27.2828 64.8634C27.1355 64.8637 26.9896 64.8347 26.8535 64.7783C26.7175 64.7219 26.5939 64.6391 26.49 64.5347L26.0804 64.1251C25.9009 63.9098 25.8083 63.6351 25.821 63.3551C25.8336 63.075 25.9506 62.8098 26.1488 62.6115C26.3471 62.4133 26.6123 62.2963 26.8924 62.2837C27.1724 62.271 27.4471 62.3636 27.6625 62.5431L28.0703 62.9527C28.2276 63.1094 28.3349 63.3094 28.3785 63.5272C28.422 63.7449 28.4 63.9708 28.3151 64.176C28.2301 64.3812 28.0862 64.5566 27.9015 64.6799C27.7168 64.8033 27.4996 64.869 27.2775 64.8687L27.2828 64.8634Z" fill="#14A36D"/>
<path d="M63.8575 61.0332C63.6518 61.033 63.4492 60.9838 63.2664 60.8896C63.0836 60.7953 62.9259 60.6588 62.8065 60.4914C62.6871 60.3239 62.6094 60.1304 62.5798 59.9269C62.5503 59.7233 62.5697 59.5157 62.6366 59.3212C62.7034 59.1267 62.8157 58.951 62.9642 58.8087C63.1126 58.6663 63.2929 58.5615 63.49 58.5028C63.6871 58.4442 63.8954 58.4335 64.0975 58.4715C64.2996 58.5096 64.4897 58.5953 64.652 58.7217L64.8506 58.9185C65.0593 59.1289 65.1764 59.4132 65.1764 59.7096C65.1764 60.0059 65.0593 60.2902 64.8506 60.5006L64.652 60.6992C64.5483 60.8047 64.4246 60.8885 64.2882 60.9458C64.1518 61.0032 64.0054 61.0329 63.8575 61.0332Z" fill="#14A36D"/>
<path d="M60.4496 57.2273C60.1517 57.2272 59.866 57.109 59.6551 56.8986L59.2473 56.489C59.0614 56.2747 58.9637 55.9979 58.9737 55.7144C58.9838 55.4309 59.1009 55.1618 59.3015 54.9612C59.5021 54.7606 59.7712 54.6435 60.0547 54.6334C60.3382 54.6233 60.615 54.7211 60.8293 54.907L61.2389 55.3165C61.3954 55.4736 61.5019 55.6735 61.545 55.891C61.5881 56.1085 61.5658 56.3339 61.4811 56.5388C61.3963 56.7436 61.2528 56.9188 61.0686 57.0423C60.8844 57.1658 60.6678 57.232 60.4461 57.2325L60.4496 57.2273ZM26.8754 57.2273C26.6537 57.2272 26.4369 57.1614 26.2526 57.0381C26.0682 56.9149 25.9246 56.7398 25.8397 56.5349C25.7549 56.33 25.7327 56.1046 25.7759 55.8871C25.8192 55.6696 25.9259 55.4699 26.0826 55.313L26.4922 54.9034C26.7065 54.7176 26.9833 54.6198 27.2668 54.6299C27.5503 54.6399 27.8194 54.7571 28.02 54.9576C28.2206 55.1582 28.3377 55.4274 28.3478 55.7109C28.3579 55.9944 28.2601 56.2712 28.0742 56.4855L27.6647 56.895C27.4557 57.1038 27.1725 57.2213 26.8772 57.222L26.8754 57.2273ZM56.4981 53.5534C56.2521 53.5541 56.0128 53.4731 55.8178 53.3232C55.6737 53.2124 55.526 53.1034 55.3783 52.9962C55.2562 52.9112 55.1522 52.8027 55.0724 52.6771C54.9927 52.5514 54.9387 52.4112 54.9136 52.2645C54.8886 52.1178 54.893 51.9676 54.9266 51.8226C54.9602 51.6776 55.0223 51.5408 55.1093 51.4201C55.1964 51.2994 55.3065 51.1972 55.4334 51.1194C55.5604 51.0417 55.7015 50.99 55.8486 50.9674C55.9956 50.9448 56.1458 50.9516 56.2902 50.9876C56.4346 51.0236 56.5704 51.0879 56.6897 51.1769C56.8549 51.2947 57.0184 51.4159 57.1801 51.539C57.3662 51.6818 57.503 51.8792 57.5711 52.1037C57.6393 52.3281 57.6356 52.5682 57.5603 52.7904C57.4851 53.0126 57.3422 53.2056 57.1517 53.3425C56.9612 53.4793 56.7326 53.5531 56.4981 53.5534ZM30.834 53.5534C30.5994 53.5531 30.3709 53.4793 30.1804 53.3425C29.9898 53.2056 29.847 53.0126 29.7717 52.7904C29.6965 52.5682 29.6927 52.3281 29.7609 52.1037C29.8291 51.8792 29.9659 51.6818 30.152 51.539C30.3137 51.4142 30.4772 51.2947 30.6406 51.1751C30.8826 51.0132 31.1779 50.9515 31.4645 51.0031C31.751 51.0546 32.0063 51.2155 32.1766 51.4516C32.3468 51.6877 32.4188 51.9808 32.3772 52.2689C32.3356 52.5571 32.1838 52.8178 31.9537 52.9962C31.8061 53.1034 31.6584 53.2124 31.5143 53.3232C31.316 53.4713 31.0744 53.5497 30.827 53.5464L30.834 53.5534ZM51.8381 50.8534C51.6897 50.8533 51.5428 50.824 51.4057 50.7673C51.2299 50.697 51.0682 50.6284 50.8977 50.5634C50.6292 50.4498 50.4153 50.2363 50.3014 49.9679C50.1874 49.6995 50.1823 49.3974 50.2871 49.1253C50.3919 48.8532 50.5983 48.6325 50.8628 48.5099C51.1273 48.3872 51.4292 48.3723 51.7045 48.4681C51.8944 48.5419 52.0824 48.6175 52.2705 48.6949C52.5093 48.7953 52.7061 48.9752 52.8274 49.2041C52.9487 49.433 52.9872 49.6968 52.9363 49.9508C52.8854 50.2049 52.7483 50.4335 52.5482 50.598C52.348 50.7625 52.0972 50.8527 51.8381 50.8534ZM35.4904 50.8534C35.2297 50.8551 34.9765 50.766 34.7743 50.6014C34.5721 50.4368 34.4334 50.207 34.3821 49.9514C34.3307 49.6957 34.3699 49.4302 34.4929 49.2003C34.616 48.9704 34.8151 48.7905 35.0563 48.6913C35.2426 48.6122 35.4324 48.5367 35.6223 48.4646C35.8999 48.3576 36.2087 48.3653 36.4806 48.4859C36.7526 48.6066 36.9655 48.8303 37.0725 49.1079C37.1795 49.3856 37.1718 49.6943 37.0511 49.9663C36.9305 50.2382 36.7067 50.4511 36.4291 50.5581C36.2533 50.6232 36.0899 50.6917 35.9211 50.762C35.7845 50.8211 35.6375 50.8522 35.4887 50.8534H35.4904ZM46.6473 49.4331C46.5944 49.4331 46.5415 49.4295 46.4891 49.4226C46.3133 49.398 46.1375 49.3751 45.9477 49.354C45.8012 49.3378 45.6594 49.2928 45.5303 49.2217C45.4012 49.1506 45.2874 49.0548 45.1953 48.9397C45.1033 48.8247 45.0348 48.6926 44.9937 48.551C44.9527 48.4095 44.94 48.2612 44.9563 48.1148C44.9725 47.9683 45.0175 47.8265 45.0886 47.6974C45.1597 47.5683 45.2555 47.4545 45.3706 47.3624C45.603 47.1765 45.8997 47.0905 46.1955 47.1234C46.3977 47.1462 46.5998 47.1726 46.8002 47.2007C47.0816 47.2396 47.3378 47.3838 47.517 47.6042C47.6962 47.8247 47.785 48.1049 47.7656 48.3883C47.7462 48.6717 47.62 48.9372 47.4124 49.1311C47.2048 49.3251 46.9314 49.433 46.6473 49.4331ZM40.683 49.4331C40.4006 49.43 40.1296 49.3206 39.9243 49.1266C39.7189 48.9327 39.5941 48.6685 39.5748 48.3867C39.5555 48.1048 39.6431 47.8261 39.8202 47.606C39.9972 47.3859 40.2507 47.2405 40.5301 47.199C40.7305 47.1708 40.9326 47.1462 41.1348 47.1234C41.2812 47.107 41.4295 47.1196 41.5711 47.1605C41.7127 47.2014 41.8448 47.2698 41.96 47.3618C42.0752 47.4538 42.1711 47.5675 42.2423 47.6966C42.3135 47.8256 42.3585 47.9674 42.3749 48.1139C42.3913 48.2604 42.3787 48.4086 42.3378 48.5502C42.2969 48.6918 42.2285 48.824 42.1365 48.9391C42.0445 49.0543 41.9308 49.1502 41.8017 49.2214C41.6727 49.2926 41.5309 49.3376 41.3844 49.354C41.2086 49.3751 41.0205 49.398 40.8395 49.4226C40.787 49.4297 40.7342 49.4333 40.6813 49.4331H40.683Z" fill="#14A36D"/>
<path d="M43.6625 76.9219C44.7382 76.9219 45.6102 76.0499 45.6102 74.9743C45.6102 73.8986 44.7382 73.0266 43.6625 73.0266C42.5868 73.0266 41.7148 73.8986 41.7148 74.9743C41.7148 76.0499 42.5868 76.9219 43.6625 76.9219Z" fill="#FA4654"/>
<path d="M52.082 74.9743H54.5799C55.4319 74.9743 56.2756 74.8065 57.0628 74.4805C57.85 74.1545 58.5653 73.6766 59.1678 73.0741L61.1717 71.0632C61.2946 70.9416 61.3712 70.7809 61.388 70.6088C61.4048 70.4367 61.3609 70.2642 61.2637 70.1212C61.1666 69.9781 61.0225 69.8736 60.8564 69.8257C60.6903 69.7778 60.5126 69.7896 60.3543 69.8591L51.7832 73.5505C51.6255 73.6179 51.496 73.7379 51.4168 73.89C51.3376 74.0422 51.3136 74.217 51.3488 74.3849C51.3841 74.5528 51.4764 74.7032 51.61 74.8107C51.7437 74.9181 51.9105 74.976 52.082 74.9743Z" fill="#14A36D"/>
<path d="M35.2424 74.9743H32.7428C31.0223 74.9726 29.3727 74.2893 28.1549 73.0741L26.1457 71.0631C26.0619 70.9817 25.9986 70.8815 25.9612 70.7708C25.9238 70.6602 25.9132 70.5421 25.9304 70.4266C25.9475 70.311 25.992 70.2012 26.06 70.1061C26.128 70.0111 26.2176 69.9337 26.3215 69.8801C26.4186 69.8265 26.5271 69.7966 26.638 69.793C26.7489 69.7893 26.8591 69.8119 26.9596 69.859L35.5307 73.5504C35.6875 73.6175 35.8165 73.7366 35.8958 73.8877C35.9751 74.0387 35.9999 74.2125 35.966 74.3797C35.9322 74.5469 35.8417 74.6973 35.7099 74.8056C35.5781 74.9139 35.413 74.9735 35.2424 74.9743Z" fill="#14A36D"/>
<path d="M28.9037 73.7156C28.6382 73.5211 28.3878 73.3066 28.1549 73.074L26.1457 71.0631C26.0619 70.9817 25.9986 70.8815 25.9612 70.7708C25.9238 70.6601 25.9132 70.5421 25.9304 70.4265C25.9475 70.3109 25.992 70.2011 26.06 70.1061C26.128 70.0111 26.2176 69.9336 26.3215 69.8801C26.7557 70.3969 27.1793 70.8873 27.5731 71.332C28.1829 72.0216 28.6368 72.8346 28.9037 73.7156Z" fill="#50755C"/>
<path d="M66.6072 43.0453C66.6072 43.6965 66.4141 44.3331 66.0524 44.8745C65.6906 45.4159 65.1764 45.8379 64.5748 46.0871C63.9732 46.3363 63.3112 46.4015 62.6725 46.2745C62.0339 46.1474 61.4472 45.8339 60.9868 45.3734C60.5263 44.913 60.2128 44.3263 60.0857 43.6877C59.9587 43.049 60.0239 42.387 60.2731 41.7854C60.5223 41.1838 60.9443 40.6696 61.4857 40.3078C62.0271 39.9461 62.6637 39.753 63.3148 39.753C63.7473 39.7527 64.1755 39.8377 64.5751 40.0031C64.9746 40.1685 65.3377 40.411 65.6434 40.7168C65.9492 41.0225 66.1917 41.3856 66.3571 41.7851C66.5225 42.1847 66.6075 42.6129 66.6072 43.0453Z" fill="#FA4654"/>
<path d="M61.0208 40.6829C60.9058 41.1117 60.8467 41.5537 60.845 41.9977V45.2303C60.2828 44.5957 59.9873 43.7685 60.02 42.9213C60.0528 42.0741 60.4113 41.2722 61.0208 40.6829Z" fill="#E52E44"/>
<path d="M64.1072 48.0357H65.2339C65.598 48.0357 65.9472 48.1804 66.2047 48.4378C66.4621 48.6953 66.6068 49.0445 66.6068 49.4086V55.5099C66.6071 55.6478 66.566 55.7826 66.4889 55.8968C66.4117 56.0111 66.3021 56.0996 66.1741 56.1509C66.0462 56.2022 65.9057 56.214 65.771 56.1846C65.6363 56.1553 65.5135 56.0862 65.4185 55.9863L61.9574 52.3828C61.7519 52.1684 61.6215 51.8932 61.5857 51.5985C61.5499 51.3037 61.6106 51.0053 61.7587 50.748L62.9171 48.7318C63.0368 48.5214 63.2098 48.3462 63.4187 48.224C63.6276 48.1018 63.8651 48.0369 64.1072 48.0357Z" fill="#14A36D"/>
<path d="M27.3043 43.0453C27.3054 43.8063 27.0433 44.5442 26.5625 45.134C26.0816 45.7238 25.4116 46.1291 24.666 46.2812C23.9204 46.4334 23.1451 46.323 22.4716 45.9688C21.7981 45.6145 21.2678 45.0383 20.9707 44.3377C20.6736 43.6372 20.6279 42.8554 20.8414 42.125C21.0549 41.3946 21.5144 40.7605 22.1421 40.3302C22.7697 39.9 23.5269 39.7 24.2851 39.7643C25.0434 39.8286 25.7561 40.1531 26.3023 40.6828C26.6194 40.9892 26.8715 41.3563 27.0437 41.7621C27.2158 42.168 27.3044 42.6044 27.3043 43.0453Z" fill="#FA4654"/>
<path d="M25.3653 52.3828L21.9042 55.9863C21.8105 56.0874 21.6876 56.1568 21.5526 56.185C21.4522 56.2062 21.3483 56.2047 21.2485 56.1806C21.1488 56.1565 21.0556 56.1104 20.9759 56.0457C20.8963 55.981 20.832 55.8994 20.788 55.8067C20.7439 55.714 20.7211 55.6126 20.7212 55.51V49.4086C20.721 49.1401 20.7997 48.8775 20.9475 48.6535C21.0953 48.4294 21.3058 48.2537 21.5526 48.1482C21.7238 48.0732 21.9089 48.0348 22.0958 48.0357H23.2208C23.4622 48.0358 23.6994 48.0996 23.9083 48.2205C24.1172 48.3415 24.2906 48.5154 24.4108 48.7248L25.571 50.741C25.7193 51 25.7795 51.3001 25.7424 51.5963C25.7053 51.8924 25.573 52.1684 25.3653 52.3828Z" fill="#14A36D"/>
<path d="M21.5478 48.1481V56.1848C21.4473 56.206 21.3434 56.2046 21.2437 56.1805C21.1439 56.1564 21.0508 56.1103 20.9711 56.0456C20.8914 55.9809 20.8272 55.8992 20.7831 55.8065C20.739 55.7138 20.7162 55.6125 20.7163 55.5098V49.4085C20.7161 49.14 20.7948 48.8774 20.9426 48.6533C21.0905 48.4293 21.3009 48.2536 21.5478 48.1481Z" fill="#50755C"/>
<path d="M21.713 40.6864C21.6031 41.1142 21.5475 41.5542 21.5478 41.9959V45.2321C20.9847 44.5988 20.6877 43.7728 20.7185 42.9261C20.7493 42.0793 21.1055 41.277 21.713 40.6864Z" fill="#E52E44"/>
</g>
<defs>
<clipPath id="clip0_6_709">
<rect width="90" height="90" fill="white"/>
</clipPath>
</defs>
</svg>
