<svg width="24" height="25" viewBox="0 0 24 25" fill="none" xmlns="http://www.w3.org/2000/svg">
<path d="M22.3985 6.48566C21.6329 6.82566 20.8105 7.05446 19.9473 7.15766C20.8289 6.62966 21.5049 5.79366 21.8233 4.79686C20.9993 5.28566 20.0857 5.64086 19.1129 5.83286C18.3345 5.00326 17.2257 4.48486 15.9985 4.48486C13.6417 4.48486 11.7313 6.39606 11.7313 8.75206C11.7313 9.08646 11.7697 9.41286 11.8417 9.72406C8.29526 9.54646 5.15126 7.84726 3.04566 5.26486C2.67926 5.89526 2.46886 6.62806 2.46886 7.41126C2.46886 8.89126 3.22166 10.1977 4.36646 10.9625C3.66726 10.9401 3.00886 10.7481 2.43366 10.4289C2.43366 10.4473 2.43366 10.4641 2.43366 10.4825C2.43366 12.5505 3.90406 14.2753 5.85686 14.6665C5.49926 14.7641 5.12166 14.8161 4.73206 14.8161C4.45766 14.8161 4.18966 14.7889 3.92966 14.7401C4.47286 16.4353 6.04886 17.6697 7.91606 17.7041C6.45606 18.8489 4.61606 19.5313 2.61606 19.5313C2.27206 19.5313 1.93206 19.5113 1.59766 19.4713C3.48646 20.6817 5.72886 21.3881 8.13926 21.3881C15.9889 21.3881 20.2801 14.8857 20.2801 9.24646C20.2801 9.06166 20.2761 8.87766 20.2681 8.69446C21.1025 8.09206 21.8265 7.34086 22.3985 6.48566Z" fill="#7479A6"/>
</svg>
