<svg width="26" height="27" viewBox="0 0 26 27" fill="none" xmlns="http://www.w3.org/2000/svg">
<path d="M23.3458 8.47597C23.1386 7.33237 22.1514 6.49956 21.0058 6.23956C19.2914 5.87597 16.1186 5.61597 12.6858 5.61597C9.255 5.61597 6.03141 5.87597 4.315 6.23956C3.17141 6.49956 2.18219 7.27956 1.975 8.47597C1.76578 9.77597 1.55859 11.596 1.55859 13.936C1.55859 16.276 1.76578 18.096 2.02578 19.396C2.235 20.5396 3.22219 21.3724 4.36578 21.6324C6.18578 21.996 9.30578 22.256 12.7386 22.256C16.1714 22.256 19.2914 21.996 21.1114 21.6324C22.255 21.3724 23.2422 20.5924 23.4514 19.396C23.6586 18.096 23.9186 16.2232 23.9714 13.936C23.8658 11.596 23.6058 9.77597 23.3458 8.47597ZM9.87859 17.576V10.296L16.2222 13.936L9.87859 17.576Z" fill="#7479A6"/>
</svg>
